# xmcd
#
# Track frame offsets:
#	150
#	15906
#	39499
#	53631
#	64416
#	84169
#	101981
#	118102
#	136950
#	152239
#	169898
#	180552
#	193322
#	205577
#
# Disc length: 3062 seconds
#
# Revision: 2
# Processed by: cddbd v1.5.2PL0 Copyright (c) Steve Scherf et al.
# Submitted via: EasyCDDAExtractor 2010.6.0.0
#
DISCID=bc0bf40e
DTITLE=Various Artist - Emozioni in musica-13-Non tutti gli uomini
DYEAR=1998
DGENRE=Italiani
TTITLE0=Luca.Barbarossa - Non tutti gli uomini 1988
TTITLE1=Luca Carboni - Sarà un uomo 1985
TTITLE2=Riccardo Cocciante - Tu sei il mio carissimo amico 1980
TTITLE3=Ivan Graziani - Pigro 1978
TTITLE4=Francesco De Gregori - Pablo 1975
TTITLE5=Toto Cutugno - L'italiano 1983
TTITLE6=Edoardo Bennato - Bravi Ragazzi 1974
TTITLE7=Loredana Bertè - Ragazzo mio 1984
TTITLE8=Eduardo De Crescenzo - Ancora 1981
TTITLE9=Paolo Conte - Hemingway 1982
TTITLE10=I Corvi - Un ragazzo di strada 1966
TTITLE11=Lucio Dalla - Quando ero soldato 1966
TTITLE12=Francesco De Gregori - Piano bar 1975
TTITLE13=Roberto Vecchioni - Canzone per Sergio 1977
EXTD=
EXTT0=
EXTT1=
EXTT2=
EXTT3=
EXTT4=
EXTT5=
EXTT6=
EXTT7=
EXTT8=
EXTT9=
EXTT10=
EXTT11=
EXTT12=
EXTT13=
PLAYORDER=
